HIERARCHY
ROOT Hips
{
  OFFSET -10.3361 102.617 -184.42
  CHANNELS 6 Xposition Yposition Zposition Zrotation Xrotation Yrotation
  JOINT RightUpLeg
  {
    OFFSET -8.9458 -8.66707 0.101652
    CHANNELS 3 Zrotation Xrotation Yrotation
    JOINT RightLeg
    {
      OFFSET 0 -44.4227 1.3727
      CHANNELS 3 Zrotation Xrotation Yrotation
      JOINT RightFoot
      {
        OFFSET 0.253549 -42.0924 -1.46059
        CHANNELS 3 Zrotation Xrotation Yrotation
        JOINT RightToes
        {
          OFFSET 0.04 -4.41509 8.4991
          CHANNELS 3 Zrotation Xrotation Yrotation
          End Site
          {
            OFFSET -0.08 -0.137448 9.77979
          }
        }
      }
    }
  }
  JOINT Spine
  {
    OFFSET 0 11.8905 0
    CHANNELS 3 Zrotation Xrotation Yrotation
    JOINT Spine1
    {
      OFFSET 0 25.6574 0.127663
      CHANNELS 3 Zrotation Xrotation Yrotation
      JOINT HEad
      {
        OFFSET 0 8.73416 0.011341
        CHANNELS 3 Zrotation Xrotation Yrotation
        End Site
        {
          OFFSET -0.29 12.7742 2.51395
        }
      }
      JOINT LeftShoulder1
      {
        OFFSET 8.99 -0.362252 -0.22
        CHANNELS 3 Zrotation Xrotation Yrotation
        JOINT LeftArm
        {
          OFFSET 10.2827 -0.00338 0.322123
          CHANNELS 3 Zrotation Xrotation Yrotation
          JOINT LeftForeArm
          {
            OFFSET 32.7669 0.099144 -1.42434
            CHANNELS 3 Zrotation Xrotation Yrotation
            JOINT LeftHand
            {
              OFFSET 27.5643 0.085362 1.02216
              CHANNELS 3 Zrotation Xrotation Yrotation
              End Site
              {
                OFFSET 16.7443 -0.6 1.50291
              }
            }
          }
        }
      }
      JOINT RightShoulder
      {
        OFFSET -8.99 -0.362252 -0.22
        CHANNELS 3 Zrotation Xrotation Yrotation
        JOINT RightArm
        {
          OFFSET -10.2827 -0.00338 0.322123
          CHANNELS 3 Zrotation Xrotation Yrotation
          JOINT RightForeArm
          {
            OFFSET -32.8971 0.099144 -1.42434
            CHANNELS 3 Zrotation Xrotation Yrotation
            JOINT RightHand
            {
              OFFSET -27.4921 0.085362 1.02216
              CHANNELS 3 Zrotation Xrotation Yrotation
              End Site
              {
                OFFSET -16.6312 -0.6 1.50291
              }
            }
          }
        }
      }
    }
  }
  JOINT LeftUpLeg
  {
    OFFSET 8.9458 -8.66707 0.101652
    CHANNELS 3 Zrotation Xrotation Yrotation
    JOINT LeftLeg
    {
      OFFSET 0 -44.4227 1.3727
      CHANNELS 3 Zrotation Xrotation Yrotation
      JOINT LeftFoot
      {
        OFFSET -0.253549 -42.0924 -1.46059
        CHANNELS 3 Zrotation Xrotation Yrotation
        JOINT LeftToes
        {
          OFFSET -0.04 -4.41509 8.4991
          CHANNELS 3 Zrotation Xrotation Yrotation
          End Site
          {
            OFFSET 0.08 -0.047448 9.77979
          }
        }
      }
    }
  }
}
MOTION
Frames:	12
Frame Time:	0.0166667
-12.5342 104.036 -219.37 6.86974 0.117565 0.554826 -7.7547 8.362 -0.593854 -0.385113 26.6613 0.305327 0.273947 -4.16072 -0.157113 0.0462048 0.000533964 0.662642 -2.13911 3.16049 -2.14188 -9.98098 0.3809 -0.453509 5.13053 0.245444 9.88906 -1.47846e-015 -1.59028e-015 -3.97569e-016 -66.7048 -43.9866 21.9836 -24.6278 13.8789 -12.7259 0.368473 9.90896 -0.00117926 -7.75201 0.266895 12.4368 104.144 -24.0615 18.5524 19.1373 17.4946 30.8484 -0.369625 9.91382 0.00119886 -11.0345 -16.0299 0.480746 -2.97507 14.5424 18.4476 -0.568628 -10.2299 0.0729698 -3.55053e-011 1.04421e-010 -6.42472e-012 
-12.3299 103.917 -217.453 7.47941 0.204789 0.99573 -8.90772 5.88783 -2.3319 -0.59306 32.0366 0.138226 1.70234 -0.160652 -0.233356 0.0462048 0.000533964 0.662642 -2.61272 3.28442 -2.38831 -11.3132 0.0737493 -0.549926 5.76059 0.298618 9.53376 3.23025e-016 0 -0 -68.0159 -42.8852 19.6063 -24.756 14.1864 -14.2894 0.368473 9.90896 -0.00117926 -6.8248 0.365126 11.4344 103.75 -25.1162 16.8724 19.4316 16.8384 26.8254 -0.369625 9.91382 0.00119886 -11.7308 -15.4851 -0.132005 -3.4019 15.9474 18.2826 -0.95084 -11.8966 0.0423088 0.797848 -1.11427 0.481496 
-12.1267 103.775 -215.605 8.04881 0.328458 1.25131 -10.0137 3.11817 -3.92247 -1.05238 37.563 0.405434 2.93436 3.57406 -0.319551 0.0462048 0.000533964 0.662642 -3.13992 3.38119 -2.5784 -12.4602 -0.175099 -0.627328 6.21849 0.342499 9.30508 -1.6027e-015 -7.95139e-016 1.98785e-016 -69.3641 -41.6994 17.1817 -24.8703 14.5114 -15.9545 0.368473 9.90896 -0.00117926 -6.08207 0.442812 10.6098 103.427 -26.1634 15.3616 19.5261 16.074 22.7355 -0.369625 9.91382 0.00119886 -12.3644 -15.0374 -0.545718 -3.76655 17.3486 18.1558 -1.32516 -13.5787 0.0076312 1.4035 -1.92899 0.839877 
-11.9222 103.55 -213.966 8.569 0.547115 0.946374 -10.7774 -0.55595 -5.34117 -2.86621 43.7324 2.56906 3.69577 6.9536 -0.459249 0.0462048 0.000533964 0.662642 -3.85451 3.41748 -2.61763 -13.154 -0.254415 -0.65394 6.19083 0.423752 9.47762 1.81391e-015 -7.95139e-016 1.98785e-016 -71.0063 -40.4313 14.5476 -24.9788 14.9269 -18.0038 0.368473 9.90896 -0.00117926 -5.92345 0.454312 10.3029 103.561 -27.1694 14.4601 19.2588 15.263 18.2885 -0.369625 9.91382 0.00119886 -12.9109 -14.9086 -0.37423 -3.98037 18.8022 18.1092 -1.66698 -15.3127 -0.03496 1.54272 -1.92687 0.923209 
-11.7275 103.338 -212.399 8.92176 0.83121 0.465161 -11.2914 -4.4649 -6.18468 -5.29399 49.5736 5.014 3.98326 9.18606 -0.55967 0.0462048 0.000533964 0.662642 -4.57604 3.38536 -2.56371 -13.4523 -0.264739 -0.648936 5.92488 0.36455 9.73397 1.01877e-015 0 3.97569e-016 -72.7472 -38.9575 11.6905 -25.0451 15.3143 -19.9879 0.368473 9.90896 -0.00117926 -5.90921 0.450747 10.2038 103.586 -28.2465 13.6446 18.8583 14.4507 13.9599 -0.369625 9.91382 0.00119886 -13.2704 -14.8322 -0.000532204 -4.10958 20.108 18.1368 -2.01389 -17.0499 -0.0894864 1.15419 -1.46281 0.691764 
-11.5486 103.236 -210.794 8.91498 1.19882 0.0967539 -11.2729 -8.13206 -5.83783 -6.34173 54.3383 5.11937 3.54563 9.12834 -0.504539 0.0462048 0.000533964 0.662642 -5.15849 3.23728 -2.41733 -13.2105 -0.305847 -0.61629 5.53247 -0.0484597 9.79624 -6.70898e-016 -7.95139e-016 -0 -74.4545 -37.0693 8.57693 -25.0628 15.6029 -21.5146 0.368473 9.90896 -0.00117926 -5.64319 0.476823 10.0438 102.868 -29.5832 12.4534 18.5578 13.7644 10.0545 -0.369625 9.91382 0.00119886 -13.2659 -14.603 0.302544 -4.18152 21.0421 18.2576 -2.42523 -18.782 -0.167157 -0.249064 -0.629378 -0.165971 
-11.3984 103.182 -209.21 8.74785 1.56534 -0.24857 -10.8448 -11.6777 -4.79982 -6.33057 58.3057 4.12153 2.80038 7.74484 -0.395766 0.0462048 0.000533964 0.662642 -5.62841 3.05854 -2.25524 -12.7699 -0.268785 -0.569855 5.11414 -0.66071 9.82219 8.19987e-016 -2.38542e-015 3.97569e-016 -75.9989 -34.9842 5.22638 -25.0555 15.8099 -22.6699 0.368473 9.90896 -0.00117926 -5.38765 0.507236 10.0378 101.826 -30.8927 11.0654 18.4091 13.1938 6.73794 -0.369625 9.91382 0.00119886 -13.0908 -14.2589 0.594471 -4.2203 21.7296 18.4172 -2.81359 -20.4234 -0.251326 -1.57582 0.304935 -0.984544 
-11.3031 103.149 -207.683 8.59339 1.86175 -0.663581 -10.2032 -15.1268 -3.08985 -5.51376 61.5235 2.85442 2.14354 5.47144 -0.298008 0.0462048 0.000533964 0.662642 -5.95491 2.91544 -2.1697 -12.4616 -0.0922079 -0.527459 4.79258 -1.39345 9.98395 1.01877e-015 7.95139e-016 -0 -77.2163 -32.935 1.61606 -25.0593 15.9234 -23.4137 0.368473 9.90896 -0.00117926 -5.43876 0.524122 10.5867 100.899 -31.9291 9.55616 18.5003 12.782 4.34604 -0.369625 9.91382 0.00119886 -12.9097 -13.7744 0.82601 -4.26702 22.1671 18.6627 -3.11929 -21.872 -0.331401 -1.75367 1.0881 -1.07015 
-11.2291 103.132 -206.172 8.32867 2.0594 -0.84985 -9.24172 -18.2146 -1.49002 -4.38266 63.7663 1.54958 1.41505 2.7506 -0.212767 0.0462048 0.000533964 0.662642 -6.16977 2.81786 -2.11447 -12.1717 0.266942 -0.481169 4.6161 -2.23208 9.96073 -9.19379e-016 7.95139e-016 -0 -78.2472 -30.6839 -2.30239 -25.0196 15.9542 -23.7341 0.368473 9.90896 -0.00117926 -5.30016 0.549549 10.8641 99.5221 -32.7376 7.81349 18.957 12.4871 2.67728 -0.369625 9.91382 0.00119886 -12.6323 -13.1351 1.05097 -4.28103 22.522 18.7128 -3.30856 -23.1699 -0.39708 -1.39754 1.5777 -0.821261 
-11.1483 103.111 -204.642 7.84308 2.0889 -0.486884 -8.15446 -20.6539 -1.04505 -4.15657 64.8011 1.43277 0.55016 0.231645 -0.161289 0.0462048 0.000533964 0.662642 -6.29598 2.82943 -2.06036 -11.8624 0.905396 -0.425154 4.63696 -3.18647 9.40473 2.48481e-017 0 1.98785e-016 -79.1387 -27.9902 -6.65568 -24.9033 15.8836 -23.5457 0.368473 9.90896 -0.00117926 -4.5052 0.615849 10.0336 97.1208 -33.2236 5.64303 20.0381 12.2608 1.75729 -0.369625 9.91382 0.00119886 -12.1959 -12.3243 1.32253 -4.22096 23.0362 18.2355 -3.33108 -24.3141 -0.436436 -0.612239 1.34446 -0.335347 
-11.071 103.105 -203.102 7.26553 2.0036 0.266737 -7.15433 -22.5814 -1.24706 -4.11366 64.7776 1.46132 -0.37458 -2.26997 -0.14332 0.0462048 0.000533964 0.662642 -6.32837 2.85514 -2.04856 -11.6375 1.72348 -0.371014 4.8907 -4.11641 8.56461 1.30452e-015 0 -0 -79.7462 -25.1132 -11.1282 -24.6554 15.7631 -23.0362 0.368473 9.90896 -0.00117926 -3.25347 0.675579 8.52703 94.1964 -33.5326 3.39068 21.3198 12.0877 1.26683 -0.369625 9.91382 0.00119886 -11.6904 -11.3224 1.59214 -4.10014 23.4874 17.4269 -3.17191 -25.3375 -0.441376 0.233429 0.995861 0.178523 
-11.0027 103.126 -201.551 6.70292 1.79083 1.44119 -6.4363 -23.962 -2.06038 -3.86221 63.7379 0.938162 -1.32784 -4.83388 -0.173103 0.0462048 0.000533964 0.662642 -6.25017 2.80404 -2.13068 -11.6456 2.75605 -0.327117 5.54184 -4.89781 7.54835 -2.842e-015 -7.95139e-016 -2.60905e-016 -80.126 -22.2824 -15.6559 -24.1677 15.6273 -22.2847 0.368473 9.90896 -0.00117926 -1.54537 0.69289 6.36232 91.0861 -33.8137 1.43395 22.3832 11.9004 0.784016 -0.369625 9.91382 0.00119886 -11.1701 -10.0247 1.89025 -3.94868 23.7029 16.2405 -2.71722 -26.3382 -0.385128 0.538404 1.23626 0.373444 
